<?xml version="1.0" standalone="no"?><svg xmlns="http://www.w3.org/2000/svg" viewBox="0 0 1440 320"><path fill="#090e0d" fill-opacity="1" d="M0,192L0,32L57.6,32L57.6,256L115.2,256L115.2,192L172.8,192L172.8,192L230.4,192L230.4,256L288,256L288,96L345.6,96L345.6,32L403.2,32L403.2,64L460.8,64L460.8,256L518.4,256L518.4,192L576,192L576,224L633.6,224L633.6,128L691.2,128L691.2,0L748.8,0L748.8,160L806.4,160L806.4,96L864,96L864,128L921.6,128L921.6,0L979.2,0L979.2,288L1036.8,288L1036.8,0L1094.4,0L1094.4,96L1152,96L1152,288L1209.6,288L1209.6,256L1267.2,256L1267.2,32L1324.8,32L1324.8,256L1382.4,256L1382.4,32L1440,32L1440,320L1382.4,320L1382.4,320L1324.8,320L1324.8,320L1267.2,320L1267.2,320L1209.6,320L1209.6,320L1152,320L1152,320L1094.4,320L1094.4,320L1036.8,320L1036.8,320L979.2,320L979.2,320L921.6,320L921.6,320L864,320L864,320L806.4,320L806.4,320L748.8,320L748.8,320L691.2,320L691.2,320L633.6,320L633.6,320L576,320L576,320L518.4,320L518.4,320L460.8,320L460.8,320L403.2,320L403.2,320L345.6,320L345.6,320L288,320L288,320L230.4,320L230.4,320L172.8,320L172.8,320L115.2,320L115.2,320L57.6,320L57.6,320L0,320L0,320Z"></path></svg>