<?xml version="1.0" standalone="no"?><svg xmlns="http://www.w3.org/2000/svg" viewBox="0 0 1440 320"><path fill="#202a29" fill-opacity="1" d="M0,0L0,128L57.6,128L57.6,288L115.2,288L115.2,256L172.8,256L172.8,256L230.4,256L230.4,288L288,288L288,64L345.6,64L345.6,32L403.2,32L403.2,160L460.8,160L460.8,256L518.4,256L518.4,128L576,128L576,160L633.6,160L633.6,192L691.2,192L691.2,128L748.8,128L748.8,64L806.4,64L806.4,0L864,0L864,32L921.6,32L921.6,96L979.2,96L979.2,288L1036.8,288L1036.8,320L1094.4,320L1094.4,224L1152,224L1152,160L1209.6,160L1209.6,224L1267.2,224L1267.2,288L1324.8,288L1324.8,224L1382.4,224L1382.4,224L1440,224L1440,320L1382.4,320L1382.4,320L1324.8,320L1324.8,320L1267.2,320L1267.2,320L1209.6,320L1209.6,320L1152,320L1152,320L1094.4,320L1094.4,320L1036.8,320L1036.8,320L979.2,320L979.2,320L921.6,320L921.6,320L864,320L864,320L806.4,320L806.4,320L748.8,320L748.8,320L691.2,320L691.2,320L633.6,320L633.6,320L576,320L576,320L518.4,320L518.4,320L460.8,320L460.8,320L403.2,320L403.2,320L345.6,320L345.6,320L288,320L288,320L230.4,320L230.4,320L172.8,320L172.8,320L115.2,320L115.2,320L57.6,320L57.6,320L0,320L0,320Z"></path></svg>