<?xml version="1.0" standalone="no"?><svg xmlns="http://www.w3.org/2000/svg" viewBox="0 0 1440 320"><path fill="#141b1a" fill-opacity="1" d="M0,192L0,224L57.6,224L57.6,96L115.2,96L115.2,32L172.8,32L172.8,288L230.4,288L230.4,64L288,64L288,320L345.6,320L345.6,224L403.2,224L403.2,0L460.8,0L460.8,256L518.4,256L518.4,192L576,192L576,96L633.6,96L633.6,192L691.2,192L691.2,64L748.8,64L748.8,160L806.4,160L806.4,192L864,192L864,32L921.6,32L921.6,320L979.2,320L979.2,128L1036.8,128L1036.8,128L1094.4,128L1094.4,288L1152,288L1152,64L1209.6,64L1209.6,256L1267.2,256L1267.2,288L1324.8,288L1324.8,192L1382.4,192L1382.4,64L1440,64L1440,320L1382.4,320L1382.4,320L1324.8,320L1324.8,320L1267.2,320L1267.2,320L1209.6,320L1209.6,320L1152,320L1152,320L1094.4,320L1094.4,320L1036.8,320L1036.8,320L979.2,320L979.2,320L921.6,320L921.6,320L864,320L864,320L806.4,320L806.4,320L748.8,320L748.8,320L691.2,320L691.2,320L633.6,320L633.6,320L576,320L576,320L518.4,320L518.4,320L460.8,320L460.8,320L403.2,320L403.2,320L345.6,320L345.6,320L288,320L288,320L230.4,320L230.4,320L172.8,320L172.8,320L115.2,320L115.2,320L57.6,320L57.6,320L0,320L0,320Z"></path></svg>